<?xml version="1.0" standalone="no"?>
<!DOCTYPE svg PUBLIC "-//W3C//DTD SVG 20010904//EN"
 "http://www.w3.org/TR/2001/REC-SVG-20010904/DTD/svg10.dtd">
<svg version="1.0" xmlns="http://www.w3.org/2000/svg"
 width="500.000000pt" height="500.000000pt" viewBox="0 0 500.000000 500.000000"
 preserveAspectRatio="xMidYMid meet">
<metadata>
Created by potrace 1.14, written by Peter Selinger 2001-2017
</metadata>
<g transform="translate(0.000000,500.000000) scale(0.100000,-0.100000)"
fill="#000000" stroke="none">
<path d="M1235 4117 c-22 -8 -60 -24 -85 -37 -59 -29 -618 -582 -671 -663 -54
-83 -76 -187 -60 -282 24 -139 31 -149 384 -503 177 -177 325 -321 329 -320 7
3 1028 1019 1086 1081 l23 24 -318 320 c-285 285 -326 323 -388 354 -61 30
-78 34 -164 36 -60 2 -111 -2 -136 -10z m203 -620 l82 -82 -195 -195 -195
-195 -85 85 -85 85 192 192 c106 106 195 193 198 193 3 0 42 -37 88 -83z"/>
<path d="M3195 4094 c-38 -8 -113 -36 -165 -61 l-95 -45 -865 -864 -865 -864
240 -240 240 -240 435 435 435 435 33 -32 32 -33 -59 -60 c-80 -81 -126 -160
-147 -253 -27 -123 -4 -257 64 -367 13 -22 131 -147 261 -278 l236 -237 -83
-83 -82 -82 -180 180 -180 180 42 42 43 43 -208 208 -208 207 -74 -77 c-114
-118 -157 -217 -156 -362 0 -95 24 -183 69 -253 17 -27 170 -186 339 -354 318
-315 336 -330 452 -365 110 -34 282 -9 386 57 73 46 306 283 343 350 81 144
83 318 5 474 -18 36 -95 120 -271 298 l-247 247 105 105 105 105 180 -180 180
-180 -53 -53 -52 -52 211 -210 210 -210 82 85 c49 52 93 109 110 143 85 176
72 358 -37 511 -25 35 -252 267 -506 517 l-461 453 146 146 145 145 353 -353
c193 -193 357 -352 362 -352 6 0 116 105 244 234 214 214 233 236 220 252 -49
60 -687 697 -746 744 -75 61 -162 107 -253 135 -79 24 -229 28 -315 9z"/>
</g>
</svg>
